PathFileType	4	(X/Y/Z)	C:\Users\Basilio\Documents\Thesis Gigler\squatting_fais\c3dfiles\044\SLS_back_pre3\markers_experimental.trc
DataRate	CameraRate	NumFrames	NumMarkers	Units	OrigDataRate	OrigDataStartFrame	OrigNumFrames
200.000000	200.000000	4	61	mm	200.000000	351	1405
Frame#	Time	FHD			LBHD			RBHD			C7			T10			LSHO			LUUPA			LMUPA			LDUPA			LLEP			LMEP			LUL			LRFIN			RSHO			RUPA1			RMUPA			RDUPA			RLEP			RMEP			RUL			LASI			RASI			USACR			LSACR			RSACR			LTHI1			LTHI2			LTHI3			LTHI4			LLFC			LMFC			LTIB1			LTIB2			LTIB3			LTIB4			LLMAL			LMMAL			LHEE			LMT1			LMT2			LMT5			RTHI			RTHI2			RTHI3			RTHI4			RLFC			RMFC			RTIB1			RTIB2			RTIB3			RTIB4			RLMAL			RHEE			RMT1			RMT2			RMT5			RMMAL			RUFIN			LRAD			*59			*60			
		X1	Y1	Z1	X2	Y2	Z2	X3	Y3	Z3	X4	Y4	Z4	X5	Y5	Z5	X6	Y6	Z6	X7	Y7	Z7	X8	Y8	Z8	X9	Y9	Z9	X10	Y10	Z10	X11	Y11	Z11	X12	Y12	Z12	X13	Y13	Z13	X14	Y14	Z14	X15	Y15	Z15	X16	Y16	Z16	X17	Y17	Z17	X18	Y18	Z18	X19	Y19	Z19	X20	Y20	Z20	X21	Y21	Z21	X22	Y22	Z22	X23	Y23	Z23	X24	Y24	Z24	X25	Y25	Z25	X26	Y26	Z26	X27	Y27	Z27	X28	Y28	Z28	X29	Y29	Z29	X30	Y30	Z30	X31	Y31	Z31	X32	Y32	Z32	X33	Y33	Z33	X34	Y34	Z34	X35	Y35	Z35	X36	Y36	Z36	X37	Y37	Z37	X38	Y38	Z38	X39	Y39	Z39	X40	Y40	Z40	X41	Y41	Z41	X42	Y42	Z42	X43	Y43	Z43	X44	Y44	Z44	X45	Y45	Z45	X46	Y46	Z46	X47	Y47	Z47	X48	Y48	Z48	X49	Y49	Z49	X50	Y50	Z50	X51	Y51	Z51	X52	Y52	Z52	X53	Y53	Z53	X54	Y54	Z54	X55	Y55	Z55	X56	Y56	Z56	X57	Y57	Z57	X58	Y58	Z58	X59	Y59	Z59	X60	Y60	Z60	X61	Y61	Z61	

352	1.755	-192.3833923339844	1795.91796875	-1044.229736328125	-318.2478332519532	1746.825805664063	-1125.83642578125	-367.2363586425782	1730.70556640625	-968.0797119140627	-365.5951538085938	1558.128051757813	-1045.209106445313	-371.9676513671876	1259.5205078125	-1013.795227050781	-271.4318542480469	1574.966186523438	-1187.377075195313	-105.3287734985352	1562.113891601563	-1277.889526367188	-80.2107391357422	1576.838256835938	-1237.07861328125	-37.01378631591798	1562.625122070313	-1275.466674804688	20.83011054992676	1566.102172851563	-1263.302001953125	17.98449516296387	1492.091552734375	-1248.838623046875	275.1252441406251	1604.806518554688	-1143.1279296875	289.6652832031251	1627.3818359375	-1042.7958984375	-280.4111938476563	1579.523071289063	-888.2839355468752	-125.8711547851563	1574.48095703125	-787.5711059570315	-97.49932861328128	1588.221923828125	-827.916687011719	-56.31489562988283	1578.771850585938	-784.5161743164065	3.787855148315431	1585.544555664063	-794.304382324219	7.12671995162964	1504.75341796875	-799.6081542968752	266.8445434570313	1611.69873046875	-897.7254638671877	-220.9958648681641	1049.558959960938	-1096.969116210938	-215.2811584472657	1048.245483398438	-880.284118652344	-379.2431030273438	1118.694580078125	-985.9978027343752	-389.435516357422	1084.748168945313	-1009.814880371094	-386.2063903808595	1090.835083007813	-953.0090942382815	-302.3331909179688	809.7217407226565	-1157.2470703125	-262.4975891113282	735.4270019531251	-1154.015258789063	-214.2901153564454	741.9485473632814	-1149.672973632813	-282.4863586425782	681.8624267578126	-1136.16845703125	-250.9198303222657	526.9690551757814	-1114.808959960938	-242.8147277832032	530.0573120117189	-992.7895507812502	-239.2935943603516	355.0420837402344	-1027.576416015625	-269.3028259277344	305.5273132324219	-1094.581787109375	-238.8435668945313	304.2875976562501	-1057.200073242188	-262.7047119140626	231.2812042236329	-1021.782653808594	-326.0392456054688	119.2659301757813	-1059.559326171875	-304.2564697265626	130.5272979736328	-975.9114379882815	-388.4906616210939	97.87947845458987	-1009.348999023438	-181.2516021728516	58.77778625488283	-986.277526855469	-180.0732574462891	58.97648239135744	-1033.176391601563	-216.4717102050782	44.80924606323243	-1079.758544921875	-281.1479492187501	783.6140136718752	-777.5578613281252	-229.4659118652344	738.8512573242189	-772.5946044921877	-199.0993347167969	744.8303833007814	-781.1654052734377	-241.0098419189454	654.2648315429689	-776.222106933594	-248.7014312744141	567.1843872070314	-780.4434814453127	-252.2189483642579	547.9138183593751	-895.144470214844	-326.1150512695313	460.5968017578126	-794.2017822265627	-425.0056762695314	498.526580810547	-763.2857666015626	-410.5104370117189	455.3021850585939	-769.8681640625002	-448.9774169921876	418.3114624023439	-793.6096801757815	-618.7796630859376	403.1543884277345	-785.6064453125002	-668.9941406250001	434.0751342773439	-844.7385253906252	-589.3875122070314	237.9963531494141	-842.412292480469	-594.2765502929689	232.4190216064454	-806.4743652343752	-638.5294799804689	259.9153137207032	-762.6575927734376	-592.2487182617189	382.6826782226563	-866.954528808594	274.9650268554688	1590.137939453125	-1010.506713867188	262.8575439453126	1558.859375	-1090.38720703125	nan	nan	nan	nan	nan	nan	
353	1.76	-192.1470642089844	1795.634155273438	-1044.246948242188	-318.0419616699219	1746.70263671875	-1125.884033203125	-367.0860595703126	1730.44091796875	-968.0386962890627	-365.4197082519532	1557.838745117188	-1045.104614257813	-371.8748474121094	1259.326904296875	-1013.755126953125	-271.3421325683594	1574.762451171875	-1187.394897460938	-105.1895065307617	1561.750610351563	-1277.962158203125	-80.04489898681642	1576.655883789063	-1237.140258789063	-37.03916549682618	1562.288940429688	-1275.4873046875	20.9046859741211	1565.730346679688	-1263.447265625	17.95123672485352	1491.41064453125	-1248.940795898438	275.1234741210938	1604.537475585938	-1143.318603515625	289.7481689453126	1626.961181640625	-1043.06591796875	-280.3824157714844	1579.331787109375	-888.275085449219	-125.6949920654297	1574.202270507813	-787.5765380859377	-97.416374206543	1588.168334960938	-828.187683105469	-56.16183090209962	1578.453857421875	-784.580017089844	4.011852741241456	1585.266723632813	-794.4480590820315	7.42505979537964	1504.580688476563	-799.707458496094	266.9158020019532	1611.338256835938	-897.9031982421877	-221.1933593750001	1049.261474609375	-1096.855712890625	-215.3699340820313	1048.013061523438	-880.2072753906252	-379.3305358886719	1118.575927734375	-985.9401855468752	-389.5620117187501	1084.60498046875	-1009.782470703125	-386.2344970703126	1090.613403320313	-952.984313964844	-302.2109375000001	809.5476684570315	-1157.160278320313	-262.0839538574219	735.0834960937501	-1154.015747070313	-213.7994232177735	741.6777343750001	-1149.43359375	-281.9786682128907	681.5384521484376	-1136.0380859375	-250.3522033691407	527.0150756835939	-1114.659301757813	-242.4736633300782	529.9612426757814	-992.5989990234377	-239.0470428466797	354.8589477539063	-1027.255004882813	-268.4512634277344	305.7984313964844	-1094.3359375	-238.5770111083985	304.3403015136719	-1057.078247070313	-262.5408630371094	231.0843353271485	-1021.404357910156	-325.9342956542969	119.2674713134766	-1059.493530273438	-304.2768249511719	130.3810424804688	-975.6845703125002	-388.6585693359376	98.25778961181643	-1009.064819335938	-181.1322021484375	58.40485763549806	-986.361755371094	-180.0624542236328	59.01833343505861	-1033.165649414063	-216.3694915771485	44.7872657775879	-1079.68017578125	-281.8208618164063	783.0569458007815	-777.5209960937502	-230.2444000244141	738.1202392578126	-772.3352050781252	-199.9966278076172	744.3792724609376	-781.114440917969	-241.7207794189454	653.8448486328126	-776.2187500000002	-249.7408447265626	566.7697143554689	-780.5427246093752	-253.3607940673829	547.6719970703126	-895.2828369140627	-327.7621459960938	460.4083557128907	-794.315612792969	-426.3751525878907	498.6672668457032	-763.5643310546876	-411.8014221191407	455.462371826172	-770.2107543945315	-450.5775146484376	418.5855102539064	-794.1953125000002	-620.3325805664064	404.0347595214845	-786.418151855469	-670.0823364257814	435.2952575683595	-845.7501220703127	-591.2667846679689	238.9351959228516	-843.386169433594	-596.7897338867189	233.1690826416016	-806.9639282226565	-640.6802978515626	261.1045837402344	-763.8053588867189	-593.8292236328126	383.5853881835938	-867.7515258789065	275.0956420898438	1589.612426757813	-1010.752685546875	262.9393310546876	1558.583374023438	-1090.590698242188	nan	nan	nan	nan	nan	nan	
354	1.765	-191.3612060546875	1795.090087890625	-1044.232666015625	-317.7511291503907	1746.456909179688	-1125.926391601563	-366.9549865722657	1730.187377929688	-967.985290527344	-365.4648742675782	1558.317626953125	-1045.453857421875	-371.8878784179688	1258.968627929688	-1013.647399902344	-270.9496154785157	1574.585205078125	-1187.271484375	-105.1571502685547	1561.515991210938	-1278.026000976563	-79.9962615966797	1576.32177734375	-1237.23828125	-37.09523391723634	1561.968994140625	-1275.519775390625	20.1529769897461	1565.888793945313	-1263.464599609375	18.1851921081543	1491.15380859375	-1249.17822265625	275.2046813964844	1604.176879882813	-1143.58203125	289.7776184082032	1626.4423828125	-1043.192504882813	-280.2518920898438	1579.168701171875	-888.3364868164065	-125.5651321411133	1574.0947265625	-787.6277465820315	-97.24991607666018	1587.798583984375	-828.2670898437502	-56.03028106689455	1578.101318359375	-784.6192626953127	4.246671676635743	1584.981201171875	-794.5469360351565	7.692820072174074	1504.19873046875	-799.8619384765627	266.9512939453126	1610.966796875	-898.0368652343752	-221.4460754394532	1049.038940429688	-1096.66064453125	-215.6247863769532	1047.546264648438	-880.0396728515627	-379.4814453125001	1117.962158203125	-985.7293701171877	-389.7306518554689	1084.511596679688	-1009.738037109375	-386.3614807128907	1090.507080078125	-952.8762817382815	-301.8697509765626	809.2527465820315	-1157.01611328125	-261.6471862792969	734.8218383789064	-1153.885375976563	-213.376449584961	741.8078613281251	-1149.48046875	-281.5403137207032	681.2638549804689	-1135.875854492188	-249.6220855712891	526.8250122070314	-1114.523681640625	-242.117172241211	529.7905273437501	-992.350036621094	-238.5675354003907	354.7054748535157	-1026.971923828125	-268.5837402343751	305.2926940917969	-1094.215942382813	-238.3337860107422	304.1156921386719	-1056.744506835938	-262.4284057617188	230.7438049316407	-1020.947631835938	-325.8745727539063	119.2651138305664	-1059.371704101563	-304.4086914062501	130.3044128417969	-975.4525146484377	-388.4951782226564	97.81295013427737	-1009.236877441406	-181.4249877929688	58.6323699951172	-986.366149902344	-180.0306091308594	59.06212997436525	-1033.034545898438	-216.4452362060547	44.93246841430665	-1079.551635742188	-282.6358642578126	782.7681884765627	-777.4619140625002	-230.7795715332032	737.5031127929689	-772.2965087890627	-200.7367706298829	744.1005249023439	-781.1269531250002	-242.4609832763672	653.2772216796876	-776.1154785156252	-250.7301788330079	566.4713745117189	-780.7801513671877	-254.6190032958985	547.0338134765626	-895.129577636719	-328.9250793457032	460.379364013672	-794.9178466796877	-427.6776123046876	498.9098205566407	-764.1145629882814	-413.3499145507814	455.5126953125001	-770.6524658203127	-452.0388793945314	418.7926330566407	-794.5554199218752	-621.8914184570314	404.9552307128907	-787.3696899414065	-671.5773315429689	436.2948303222657	-846.4517822265627	-593.3369140625001	239.5451202392579	-844.251159667969	-599.0130004882814	233.8741607666016	-807.7276611328127	-642.9181518554689	261.6227416992188	-764.5130004882814	-595.3164672851564	384.219207763672	-868.494567871094	275.2277526855469	1589.053833007813	-1011.001342773438	262.9451599121094	1558.197875976563	-1090.758178710938	nan	nan	nan	nan	nan	nan	
355	1.77	-191.506576538086	1794.95654296875	-1044.160766601563	-317.4969787597657	1746.12841796875	-1125.915893554688	-366.7156982421876	1729.966064453125	-967.9909667968752	-365.3344116210938	1558.069458007813	-1045.366333007813	-371.9298400878907	1258.774536132813	-1013.586975097656	-271.0653686523438	1574.15966796875	-1187.2451171875	-105.0537796020508	1561.153686523438	-1278.110717773438	-79.85694885253908	1576.086181640625	-1237.280395507813	-37.08610916137696	1561.6572265625	-1275.640869140625	20.15589141845703	1565.538330078125	-1263.63525390625	18.0189380645752	1491.412475585938	-1249.201049804688	275.3315429687501	1603.689208984375	-1143.79736328125	289.9650573730469	1625.987060546875	-1043.379028320313	-280.1604614257813	1579.011474609375	-888.338073730469	-125.296989440918	1573.693237304688	-787.628845214844	-97.10854339599612	1587.450927734375	-828.257507324219	-55.86365509033205	1577.80712890625	-784.644958496094	4.457972049713136	1584.685913085938	-794.643005371094	7.765077590942385	1503.843872070313	-799.8912353515627	267.1434631347657	1610.491943359375	-898.219665527344	-221.8864746093751	1048.734375	-1096.494262695313	-215.6915435791016	1047.19970703125	-879.9813232421877	-379.5853576660157	1117.8330078125	-985.6353149414065	-389.9109497070314	1084.415283203125	-1009.667175292969	-386.4473876953126	1090.356689453125	-952.8295898437502	-301.6003723144532	809.0379638671877	-1156.853149414063	-261.1930847167969	734.4494628906251	-1153.80615234375	-212.8804321289063	741.5317382812501	-1149.26025390625	-281.1093139648438	681.0586547851564	-1135.720947265625	-248.8045654296876	526.5460815429689	-1114.374389648438	-241.7788848876954	529.6706542968751	-992.1357421875002	-238.2090454101563	354.5942993164063	-1026.716674804688	-268.1290893554688	305.1765441894532	-1093.95849609375	-237.7019653320313	303.6692199707032	-1056.317993164063	-262.2458190917969	230.4360809326172	-1020.699035644531	-325.7998962402344	119.2680053710938	-1059.2880859375	-304.3890686035157	130.2108764648438	-975.2158203125002	-388.4493408203126	97.74994659423831	-1009.192687988281	-181.6449890136719	58.32981872558595	-986.3499145507815	-180.0769348144532	59.20315551757814	-1032.897827148438	-216.426986694336	45.33583450317384	-1079.487915039063	-283.1225891113282	782.4185180664065	-777.4033813476565	-231.6464233398438	737.3049926757814	-772.2419433593752	-201.5389404296876	743.6840209960939	-781.0467529296877	-244.1080932617188	653.6406860351564	-776.655212402344	-251.8490295410157	566.1679687500001	-780.7818603515627	-255.2086791992188	547.1091918945314	-895.3469238281252	-330.4465026855469	460.1752319335939	-795.0769042968752	-428.8420410156251	498.9664306640626	-764.3847656250001	-414.6374511718751	455.4021301269532	-771.1093750000002	-453.5227661132814	419.0320434570314	-795.1819458007815	-623.1960449218751	405.7528076171876	-788.2437744140627	-673.0188598632814	437.4531860351564	-847.4431152343752	-595.7584838867189	240.172592163086	-845.1975708007815	-600.9815673828126	234.6569061279297	-809.132751464844	-645.0572509765626	262.8948974609376	-765.6205444335939	-596.7712402343751	385.1429443359376	-869.3948364257815	275.3601379394532	1588.47900390625	-1011.250549316406	263.1796264648438	1557.958618164063	-1091.00341796875	nan	nan	nan	nan	nan	nan	
